<?xml version="1.0" encoding="UTF-8" standalone="no"?>
<!-- Created with Inkscape (http://www.inkscape.org/) -->

<svg
   xmlns:dc="http://purl.org/dc/elements/1.1/"
   xmlns:cc="http://creativecommons.org/ns#"
   xmlns:rdf="http://www.w3.org/1999/02/22-rdf-syntax-ns#"
   xmlns:svg="http://www.w3.org/2000/svg"
   xmlns="http://www.w3.org/2000/svg"
   xmlns:xlink="http://www.w3.org/1999/xlink"
   xmlns:sodipodi="http://sodipodi.sourceforge.net/DTD/sodipodi-0.dtd"
   xmlns:inkscape="http://www.inkscape.org/namespaces/inkscape"
   width="610"
   height="610"
   id="svg2"
   version="1.1"
   inkscape:version="0.48.4 r9939"
   sodipodi:docname="drawing.svg">
  <defs
     id="defs4" />
  <sodipodi:namedview
     id="base"
     pagecolor="#ffffff"
     bordercolor="#666666"
     borderopacity="1.0"
     inkscape:pageopacity="0.0"
     inkscape:pageshadow="2"
     inkscape:zoom="1.979899"
     inkscape:cx="127.29665"
     inkscape:cy="243.09714"
     inkscape:document-units="px"
     inkscape:current-layer="layer1"
     showgrid="true"
     inkscape:snap-bbox="true"
     inkscape:window-width="1680"
     inkscape:window-height="984"
     inkscape:window-x="1280"
     inkscape:window-y="27"
     inkscape:window-maximized="1"
     fit-margin-top="0"
     fit-margin-left="0"
     fit-margin-right="0"
     fit-margin-bottom="0">
    <inkscape:grid
       type="xygrid"
       id="grid2987"
       empspacing="5"
       visible="true"
       enabled="true"
       snapvisiblegridlinesonly="true"
       originx="-70px"
       originy="-480px" />
  </sodipodi:namedview>
  <metadata
     id="metadata7">
    <rdf:RDF>
      <cc:Work
         rdf:about="">
        <dc:format>image/svg+xml</dc:format>
        <dc:type
           rdf:resource="http://purl.org/dc/dcmitype/StillImage" />
        <dc:title />
      </cc:Work>
    </rdf:RDF>
  </metadata>
  <g
     inkscape:label="Layer 1"
     inkscape:groupmode="layer"
     id="layer1"
     transform="translate(-70,37.63782)">
    <path
       sodipodi:type="arc"
       style="fill:#878787;fill-opacity:1;stroke:none"
       id="path3856"
       sodipodi:cx="215.5"
       sodipodi:cy="215.5"
       sodipodi:rx="305"
       sodipodi:ry="305"
       d="m 520.5,215.5 c 0,168.44685 -136.55315,305 -305,305 -168.446849,0 -305,-136.55315 -305,-305 0,-168.446849 136.553151,-305 305,-305 168.44685,0 305,136.553151 305,305 z"
       transform="translate(159.5,51.86218)" />
    <path
       sodipodi:type="arc"
       style="fill:#ffffff;fill-opacity:1;stroke:none"
       id="path3850"
       sodipodi:cx="215.5"
       sodipodi:cy="215.5"
       sodipodi:rx="225"
       sodipodi:ry="225"
       d="m 440.5,215.5 c 0,124.26407 -100.73593,225 -225,225 -124.264069,0 -225,-100.73593 -225,-225 0,-124.264069 100.735931,-225 225,-225 124.26407,0 225,100.735931 225,225 z"
       transform="matrix(0.97560975,0,0,0.97560976,164.7561,57.118278)" />
    <path
       sodipodi:type="arc"
       style="fill:#196eaa;fill-opacity:1;stroke:none"
       id="path3763"
       sodipodi:cx="375"
       sodipodi:cy="267.36218"
       sodipodi:rx="115"
       sodipodi:ry="115"
       d="m 490,267.36218 c 0,63.51275 -51.48725,115 -115,115 -63.51275,0 -115,-51.48725 -115,-115 0,-63.51274 51.48725,-115 115,-115 63.51275,0 115,51.48726 115,115 z" />
    <path
       sodipodi:type="arc"
       style="fill:#196eaa;fill-opacity:1;stroke:#ffffff;stroke-width:5;stroke-miterlimit:4;stroke-opacity:1;stroke-dasharray:15, 5;stroke-dashoffset:0"
       id="path3848"
       sodipodi:cx="215.5"
       sodipodi:cy="215.5"
       sodipodi:rx="55"
       sodipodi:ry="55"
       d="m 270.5,215.5 c 0,30.37566 -24.62434,55 -55,55 -30.37566,0 -55,-24.62434 -55,-55 0,-30.37566 24.62434,-55 55,-55 30.37566,0 55,24.62434 55,55 z"
       transform="translate(159.5,51.86218)" />
    <text
       xml:space="preserve"
       style="font-size:8px;font-style:normal;font-weight:normal;text-align:center;line-height:125%;letter-spacing:0px;word-spacing:0px;text-anchor:middle;fill:#ffffff;fill-opacity:1;stroke:none;font-family:Sans"
       x="374.97656"
       y="257.60831"
       id="text3869"
       sodipodi:linespacing="125%"><tspan
         sodipodi:role="line"
         id="tspan3871"
         x="374.97656"
         y="257.60831"
         style="font-size:20px;text-align:center;text-anchor:middle;fill:#ffffff;fill-opacity:1;stroke:none">Core</tspan><tspan
         sodipodi:role="line"
         x="374.97656"
         y="270.64731"
         style="font-size:8px;text-align:center;text-anchor:middle;fill:#ffffff;fill-opacity:1;stroke:none"
         id="tspan4095">gridsim.core</tspan><tspan
         sodipodi:role="line"
         x="374.97656"
         y="280.64731"
         style="font-size:8px;text-align:center;text-anchor:middle;fill:#ffffff;fill-opacity:1;stroke:none"
         id="tspan4099">gridsim.decorators</tspan><tspan
         sodipodi:role="line"
         x="374.97656"
         y="290.64731"
         style="font-size:8px;text-align:center;text-anchor:middle;fill:#ffffff;fill-opacity:1;stroke:none"
         id="tspan4014">gridsim.util</tspan><tspan
         sodipodi:role="line"
         x="374.97656"
         y="300.64731"
         id="tspan3877"
         style="font-size:8px;text-align:center;text-anchor:middle;fill:#ffffff;fill-opacity:1;stroke:none">gridsim.unit</tspan></text>
    <path
       style="fill:#ffffff;fill-opacity:1;stroke:none"
       d="m 336.26019,211.38671 c -0.01,-6.27978 -2.37611,-21.18258 -4.5918,-28.91562 -10.64137,-37.13954 -38.07767,-66.75159 -74.37854,-80.27689 -10.02659,-3.735797 -22.66771,-6.393766 -34.00739,-7.150527 l -5.14568,-0.343402 0.23536,-9.652674 c 0.3586,-14.707563 1.21715,-68.878891 1.21715,-76.7976222 l 0,-7.0043081 6.69226,0.3359586 c 72.44747,3.63694 137.77478,43.6019687 174.73313,106.8957947 12.03369,20.60858 21.41478,46.29597 25.36253,69.44799 2.0315,11.91397 3.93968,32.12924 3.11109,32.95906 -0.37503,0.37559 -57.81956,1.5053 -80.97829,1.59253 l -12.2481,0.0461 -0.002,-1.13642 -2.1e-4,0 z"
       id="path3881"
       inkscape:connector-curvature="0"
       transform="translate(159.5,51.86218)" />
    <path
       style="fill:#196eaa;fill-opacity:1;stroke:none"
       d="m 336.02177,207.85117 c -1.61371,-21.7031 -8.35043,-41.71901 -19.82369,-58.89947 -20.89572,-31.28997 -53.61161,-50.631623 -90.85464,-53.71329 l -7.22419,-0.597763 0.24617,-9.875403 c 0.36351,-14.583127 1.22429,-68.376887 1.22407,-76.496987 l -2e-4,-7.0225903 6.69226,0.3359586 c 63.93156,3.209432 122.41428,34.5653347 161.23024,86.4446647 19.45464,26.00203 33.51609,58.5274 38.86542,89.89912 2.0315,11.91397 3.93968,32.12924 3.11109,32.95906 -0.37448,0.37504 -57.795,1.50503 -80.92467,1.59253 l -12.19448,0.0461 -0.34738,-4.67196 z"
       id="path3883"
       inkscape:connector-curvature="0"
       transform="translate(159.5,51.86218)" />
    <text
       xml:space="preserve"
       style="font-size:28px;font-style:normal;font-weight:normal;text-align:center;line-height:125%;letter-spacing:0px;word-spacing:0px;text-anchor:middle;fill:#ffffff;fill-opacity:1;stroke:none;font-family:Sans"
       x="460.82495"
       y="-218.23888"
       id="text3765-9"
       sodipodi:linespacing="125%"
       transform="matrix(0.72756306,0.68604081,-0.68604081,0.72756306,0,0)"><tspan
         sodipodi:role="line"
         id="tspan3767-2"
         x="460.82495"
         y="-218.23888"
         style="font-size:24px;text-align:center;text-anchor:middle;fill:#ffffff;fill-opacity:1">Electrical module</tspan><tspan
         sodipodi:role="line"
         x="460.82495"
         y="-200.19986"
         id="tspan2986-3"
         style="font-size:12px;text-align:center;text-anchor:middle;fill:#ffffff;fill-opacity:1">gridsim.electrical</tspan></text>
    <path
       style="fill:#196eaa;fill-opacity:1;stroke:none"
       d="M 38.515736,211.92888 C 19.36395,211.58267 3.1719857,211.28484 2.5335929,211.26703 l -1.1607143,-0.0324 0.00236,-2.94643 c 0.00331,-4.12807 0.9139418,-15.16608 1.7691561,-21.44434 C 10.136678,135.51243 35.210865,88.773775 74.05145,54.672068 103.98737,28.388578 139.48196,11.307832 178.33716,4.4875714 187.78765,2.8287269 195.85229,1.9434907 206.64073,1.3807581 l 4.73215,-0.2468317 0.005,3.1753568 c 0.003,1.7464461 0.32194,21.6574998 0.70928,44.2467848 0.38735,22.589286 0.70652,42.217496 0.70927,43.618243 l 0.005,2.546814 -3.48214,0.241668 c -18.47331,1.282086 -33.24222,5.246607 -48.62834,13.053657 -38.08744,19.32589 -63.203004,57.7419 -65.611393,100.35724 l -0.242422,4.28952 -10.749985,-0.0524 c -5.912493,-0.0288 -26.419629,-0.33569 -45.571414,-0.68189 z"
       id="path3911"
       inkscape:connector-curvature="0"
       transform="translate(159.5,51.86218)" />
    <text
       xml:space="preserve"
       style="font-size:28px;font-style:normal;font-weight:normal;text-align:center;line-height:125%;letter-spacing:0px;word-spacing:0px;text-anchor:middle;fill:#ffffff;fill-opacity:1;stroke:none;font-family:Sans"
       x="90.053062"
       y="299.25458"
       id="text3765-99"
       sodipodi:linespacing="125%"
       transform="matrix(0.7311447,-0.68222242,0.68222242,0.7311447,0,0)"><tspan
         sodipodi:role="line"
         x="90.053062"
         y="299.25458"
         style="font-size:24px;fill:#ffffff;fill-opacity:1"
         id="tspan3939">Thermal module</tspan><tspan
         sodipodi:role="line"
         x="90.053062"
         y="317.29358"
         style="font-size:12px;fill:#ffffff;fill-opacity:1"
         id="tspan4040">gridsim.thermal</tspan></text>
    <path
       style="fill:none;stroke:#196eaa;stroke-width:1;stroke-miterlimit:4;stroke-opacity:1;stroke-dasharray:4, 4;stroke-dashoffset:0"
       d="m 206.08716,429.59271 c -9.4766,-0.64906 -13.32883,-0.98939 -17.98668,-1.58904 C 125.62558,419.96069 70.249578,385.02768 35.550871,331.77035 18.625668,305.7927 7.4044086,275.54727 3.2202809,244.6275 2.2520754,237.47267 1.4544174,227.95973 1.4488419,223.50115 l -0.00453,-3.62635 3.6607142,-0.20333 c 2.0133929,-0.11183 21.2589289,-0.44796 42.7678569,-0.74695 21.508929,-0.29899 40.890296,-0.62403 43.069707,-0.72231 l 3.962564,-0.17869 0.23379,4.87472 c 0.571478,11.91599 3.566757,25.5252 8.162406,37.0864 15.06359,37.89513 48.31199,65.71664 88.11186,73.72999 8.47134,1.70563 14.56472,2.2905 23.95967,2.29973 8.57131,0.008 13.01095,-0.33706 20.46138,-1.59225 37.51298,-6.31991 69.97539,-30.25008 87.22566,-64.29977 7.46132,-14.72762 11.55907,-29.50727 12.73674,-45.93854 l 0.44136,-6.15798 3.94242,0.17754 c 2.16834,0.0976 21.54065,0.42217 43.04958,0.72116 21.50893,0.29899 40.75446,0.63512 42.76786,0.74695 l 3.66071,0.20333 0,2.74164 c 0,3.4029 -0.88832,14.50077 -1.61893,20.22534 -4.8725,38.17807 -20.131,74.47544 -44.21436,105.17857 -14.64875,18.67526 -33.69663,35.84059 -53.98814,48.65236 -29.14961,18.40467 -60.71622,29.06495 -95.53571,32.26314 -5.60293,0.51463 -24.02792,0.94359 -28.21429,0.65686 l 0,0 z"
       id="path3947"
       inkscape:connector-curvature="0"
       transform="translate(159.5,51.86218)" />
    <path
       style="fill:none;stroke:none"
       d="m 40.5,220.5 c 0,210 350,210 350,0"
       id="path3955"
       inkscape:connector-curvature="0"
       transform="translate(159.5,51.86218)"
       sodipodi:nodetypes="cc" />
    <path
       style="fill:none;stroke:#ffffff;stroke-width:5.1105032;stroke-linecap:butt;stroke-linejoin:miter;stroke-miterlimit:4;stroke-opacity:1;stroke-dasharray:10.22100648, 5.11050325;stroke-dashoffset:0"
       d="m 375,485.97333 0,88.79862"
       id="path3964"
       inkscape:connector-curvature="0"
       sodipodi:nodetypes="cc" />
    <path
       style="fill:none;stroke:#ffffff;stroke-width:5.12505007;stroke-linecap:butt;stroke-linejoin:miter;stroke-miterlimit:4;stroke-opacity:1;stroke-dasharray:10.25010006, 5.12505003;stroke-dashoffset:0"
       d="m 565.06253,159.29965 77.37494,-44.37494"
       id="path3970"
       inkscape:connector-curvature="0"
       sodipodi:nodetypes="cc" />
    <path
       style="fill:none;stroke:#ffffff;stroke-width:5.12505007;stroke-linecap:butt;stroke-linejoin:miter;stroke-miterlimit:4;stroke-opacity:1;stroke-dasharray:10.25010006, 5.12505003;stroke-dashoffset:0"
       d="m 110.06253,113.42471 77.37494,44.37494"
       id="path3970-8"
       inkscape:connector-curvature="0"
       sodipodi:nodetypes="cc" />
    <text
       xml:space="preserve"
       style="font-size:8px;font-style:normal;font-weight:normal;line-height:125%;letter-spacing:0px;word-spacing:0px;fill:#ffffff;fill-opacity:1;stroke:none;font-family:Sans"
       x="243.11426"
       y="31.965696"
       id="text3992"
       sodipodi:linespacing="125%"><tspan
         sodipodi:role="line"
         id="tspan3994"
         x="243.11426"
         y="31.965696"
         style="font-size:28px;fill:#ffffff;fill-opacity:1">Timeseries module</tspan></text>
    <flowRoot
       xml:space="preserve"
       id="flowRoot4016"
       style="fill:black;stroke:none;stroke-opacity:1;stroke-width:1px;stroke-linejoin:miter;stroke-linecap:butt;fill-opacity:1;font-family:Sans;font-style:normal;font-weight:normal;font-size:8px;line-height:125%;letter-spacing:0px;word-spacing:0px"><flowRegion
         id="flowRegion4018"><rect
           id="rect4020"
           width="40.406101"
           height="8.3337584"
           x="280.82242"
           y="232.70802" /></flowRegion><flowPara
         id="flowPara4022" /></flowRoot>    <text
       xml:space="preserve"
       style="font-size:24px;font-style:normal;font-weight:normal;text-align:center;line-height:125%;letter-spacing:0px;word-spacing:0px;text-anchor:middle;fill:#ffffff;fill-opacity:1;stroke:none;font-family:Sans"
       x="374.2207"
       y="193.0499"
       id="text4101"
       sodipodi:linespacing="125%"><tspan
         sodipodi:role="line"
         id="tspan4103"
         x="374.2207"
         y="193.0499">Simulator</tspan></text>
    <text
       xml:space="preserve"
       style="font-size:9px;font-style:normal;font-weight:normal;text-align:center;line-height:125%;letter-spacing:0px;word-spacing:0px;text-anchor:middle;fill:#ffffff;fill-opacity:1;stroke:none;font-family:Sans"
       x="416.27817"
       y="146.03511"
       id="text4105"
       sodipodi:linespacing="125%"
       transform="matrix(0.64925397,0.76057168,-0.76057168,0.64925397,0,0)"><tspan
         sodipodi:role="line"
         id="tspan4107"
         x="416.27817"
         y="146.03511"
         style="font-size:28px;fill:#ffffff;fill-opacity:1">Control module</tspan></text>
    <text
       xml:space="preserve"
       style="font-size:9px;font-style:normal;font-weight:normal;text-align:center;line-height:125%;letter-spacing:0px;word-spacing:0px;text-anchor:middle;fill:#ffffff;fill-opacity:1;stroke:none;font-family:Sans"
       x="38.908527"
       y="721.37469"
       id="text4109"
       sodipodi:linespacing="125%"
       transform="matrix(0.60088488,-0.79933557,0.79933557,0.60088488,0,0)"><tspan
         sodipodi:role="line"
         id="tspan4111"
         x="38.908527"
         y="721.37469"
         style="font-size:28px;fill:#ffffff;fill-opacity:1">Record module</tspan></text>
    <text
       xml:space="preserve"
       style="font-size:20px;font-style:normal;font-weight:normal;text-align:start;line-height:125%;letter-spacing:0px;word-spacing:0px;text-anchor:start;fill:#196eaa;fill-opacity:1;stroke:none;font-family:Sans"
       id="text3949"
       sodipodi:linespacing="125%"
       x="37.738388"
       y="0"><textPath
         xlink:href="#path3955"
         id="textPath3957"><tspan
   style="font-weight:normal;text-align:start;writing-mode:lr-tb;text-anchor:start;-inkscape-font-specification:Sans"
   id="tspan3951">                Other modules from community</tspan></textPath></text>
    <text
       xml:space="preserve"
       style="font-size:12px;font-style:normal;font-weight:normal;text-align:center;line-height:125%;letter-spacing:0px;word-spacing:0px;text-anchor:middle;fill:#ffffff;fill-opacity:1;stroke:none;font-family:Sans"
       x="375"
       y="347.36218"
       id="text3022"
       sodipodi:linespacing="125%"><tspan
         sodipodi:role="line"
         id="tspan3024"
         x="375"
         y="347.36218">gridsim.simulation</tspan></text>
  </g>
</svg>
